HIERARCHY
ROOT RootJoint
{
    OFFSET   0.000000   0.000000   0.000000
    CHANNELS 6 Xposition Yposition Zposition Xrotation Yrotation Zrotation
    JOINT pelvis_lowerback
    {
        OFFSET   0.000000   0.093605   0.000000
        CHANNELS 3 Xrotation Yrotation Zrotation
        JOINT lowerback_torso
        {
            OFFSET   0.000000   0.100000   0.000000
            CHANNELS 3 Xrotation Yrotation Zrotation
            JOINT torso_head
            {
                OFFSET   0.000000   0.282350   0.000000
                CHANNELS 3 Xrotation Yrotation Zrotation
                End Site
                {
                    OFFSET   0.000000   0.192650   0.000000
                }
            }
            JOINT rTorso_Clavicle
            {
                OFFSET  -0.001000   0.157500   0.000000
                CHANNELS 3 Xrotation Yrotation Zrotation
                JOINT rShoulder
                {
                    OFFSET  -0.117647   0.000000   0.000000
                    CHANNELS 3 Xrotation Yrotation Zrotation
                    JOINT rElbow
                    {
                        OFFSET  -0.245000   0.000000   0.000000
                        CHANNELS 3 Xrotation Yrotation Zrotation
                        JOINT rWrist
                        {
                            OFFSET  -0.240000   0.000000   0.000000
                            CHANNELS 3 Xrotation Yrotation Zrotation
                            End Site
                            {
                                OFFSET  -0.116353  -0.002500   0.000000
                            }
                        }
                    }
                }
            }
            JOINT lTorso_Clavicle
            {
                OFFSET   0.001000   0.157500   0.000000
                CHANNELS 3 Xrotation Yrotation Zrotation
                JOINT lShoulder
                {
                    OFFSET   0.117647   0.000000   0.000000
                    CHANNELS 3 Xrotation Yrotation Zrotation
                    JOINT lElbow
                    {
                        OFFSET   0.245000   0.000000   0.000000
                        CHANNELS 3 Xrotation Yrotation Zrotation
                        JOINT lWrist
                        {
                            OFFSET   0.240000   0.000000   0.000000
                            CHANNELS 3 Xrotation Yrotation Zrotation
                            End Site
                            {
                                OFFSET   0.116353  -0.002500   0.000000
                            }
                        }
                    }
                }
            }
        }
    }
    JOINT rHip
    {
        OFFSET  -0.100000  -0.051395   0.000000
        CHANNELS 3 Xrotation Yrotation Zrotation
        JOINT rKnee
        {
            OFFSET   0.000000  -0.410000   0.000000
            CHANNELS 3 Xrotation Yrotation Zrotation
            JOINT rAnkle
            {
                OFFSET   0.000000  -0.390000   0.000000
                CHANNELS 3 Xrotation Yrotation Zrotation
                JOINT rToeJoint
                {
                    OFFSET   0.000000  -0.050000   0.130000
                    CHANNELS 3 Xrotation Yrotation Zrotation
                    End Site
                    {
                        OFFSET  -0.010000   0.002000   0.060000
                    }
                }
            }
        }
    }
    JOINT lHip
    {
        OFFSET   0.100000  -0.051395   0.000000
        CHANNELS 3 Xrotation Yrotation Zrotation
        JOINT lKnee
        {
            OFFSET   0.000000  -0.410000   0.000000
            CHANNELS 3 Xrotation Yrotation Zrotation
            JOINT lAnkle
            {
                OFFSET   0.000000  -0.390000   0.000000
                CHANNELS 3 Xrotation Yrotation Zrotation
                JOINT lToeJoint
                {
                    OFFSET   0.000000  -0.050000   0.130000
                    CHANNELS 3 Xrotation Yrotation Zrotation
                    End Site
                    {
                        OFFSET   0.010000   0.002000   0.060000
                    }
                }
            }
        }
    }
}
MOTION
Frames: 14
Frame Time:   0.008333
 -2.376719   0.925631   3.975860   0.000000   0.000000   0.000000   0.000000   0.000000   0.000000   0.000000   0.000000   0.000000   0.000000   0.000000   0.000000   0.000000   0.000000   0.000000   0.000000   0.000000   0.000000   0.000000   0.000000   0.000000   0.000000   0.000000   0.000000   0.000000   0.000000   0.000000   0.000000   0.000000   0.000000   0.000000   0.000000   0.000000   0.000000   0.000000   0.000000   0.000000   0.000000   0.000000   0.000000   0.000000   0.000000   0.000000   0.000000   0.000000   0.000000   0.000000   0.000000   0.000000   0.000000   0.000000   0.000000   0.000000   0.000000   0.000000   0.000000   0.000000   0.000000   0.000000   0.000000
 -2.376760   0.926549   3.976180  -0.297002   0.048113  -0.090528   0.181993   0.027311   0.012369   0.219671  -0.175865   0.112380  -0.126055   0.148116   0.167671   0.196991  -0.310013   0.913020   0.952589   0.337688   1.741959   0.015409   0.653297  -0.007198   0.526251  -0.315796  -3.212908   0.318807   0.171713  -1.013618   1.292857  -0.005889  -1.676804   0.012253  -0.526823   0.007940   0.529109   0.152275   3.091386   0.073710   0.171763   0.006969   0.854698   0.000639   0.001633  -0.903958  -0.112314  -0.052492  -0.154538  -0.000181  -0.000146   0.139881  -0.150660   0.209158   0.877105  -0.000914  -0.000778  -1.029998   0.160064   0.039184   0.245968  -0.000336   0.000122
 -2.376791   0.928045   3.976758  -0.634162   0.111883  -0.197763   0.329957   0.031000   0.035477   0.462365  -0.370159   0.246868  -0.231325   0.288970   0.344633   0.395390  -0.582540   2.662962   1.871785   0.722975   4.162016   0.036013   1.288568  -0.012202   1.086899  -0.457250  -5.637375   0.637240   0.291986  -2.864967   2.559393  -0.078483  -4.046609   0.028453  -1.034614   0.013701   1.105381   0.201964   5.376091   0.177058   0.340220  -0.054224   1.771813   0.001939   0.003114  -1.749629  -0.216316  -0.103095  -0.348276  -0.000513  -0.000335   0.374773  -0.292917   0.517524   1.833883  -0.002435  -0.001230  -1.992846   0.311372   0.079384   0.424784  -0.000642   0.000210
 -2.376798   0.929624   3.977525  -0.950996   0.176302  -0.304431   0.433662   0.017516   0.064508   0.670338  -0.569249   0.382866  -0.330901   0.419927   0.513256   0.588310  -0.817762   4.905247   2.752238   1.153378   7.031777   0.056157   1.885149  -0.015143   1.628718  -0.536388  -7.074262   0.936969   0.362575  -5.199930   3.794421  -0.232979  -6.872238   0.044409  -1.515364   0.017558   1.663480   0.188572   6.677877   0.269267   0.496227  -0.188523   2.646454   0.003517   0.004056  -2.538806  -0.313510  -0.152111  -0.533502  -0.000879  -0.000470   0.655774  -0.420862   0.888653   2.764985  -0.004125  -0.001393  -2.890555   0.453316   0.119848   0.583987  -0.000933   0.000277
 -2.376794   0.930921   3.978431  -1.238649   0.232132  -0.406287   0.501212  -0.008875   0.095543   0.839982  -0.769235   0.512603  -0.428120   0.541779   0.672403   0.777992  -1.026330   7.411918   3.595663   1.630332  10.201668   0.073347   2.442782  -0.016604   2.148283  -0.583323  -7.766031   1.216020   0.397017  -7.799556   4.985381  -0.470662  -9.963123   0.058156  -1.970305   0.020016   2.202369   0.118415   7.231411   0.341896   0.640387  -0.385566   3.463113   0.005093   0.004482  -3.276338  -0.404478  -0.199511  -0.711450  -0.001242  -0.000549   0.965842  -0.535513   1.305668   3.653134  -0.005769  -0.001405  -3.728701   0.586205   0.160221   0.723504  -0.001176   0.000311
 -2.376827   0.931654   3.979438  -1.499153   0.274748  -0.500318   0.540933  -0.044879   0.120379   0.977852  -0.967354   0.622298  -0.522226   0.655078   0.825118   0.966347  -1.217645  10.037261   4.402330   2.152252  13.573216   0.086602   2.962292  -0.017048   2.644895  -0.612971  -7.947676   1.474787   0.408211 -10.551057   6.080070  -0.773698 -13.082064   0.068690  -2.400706   0.021305   2.723368  -0.005027   7.220191   0.394942   0.773934  -0.632126   4.222484   0.006484   0.004505  -3.965751  -0.489593  -0.245241  -0.881745  -0.001569  -0.000578   1.296414  -0.638080   1.758001   4.496888  -0.007280  -0.001344  -4.511384   0.710395   0.200175   0.845732  -0.001363   0.000317
 -2.376873   0.931600   3.980510  -1.736346   0.301375  -0.590521   0.559617  -0.088190   0.143702   1.091215  -1.161783   0.729240  -0.612234   0.760484   0.963642   1.156871  -1.396257  12.738927   5.126573   2.687405  16.905923   0.095522   3.446971  -0.016620   3.121365  -0.621328  -7.710390   1.713765   0.404871 -13.345597   7.081330  -1.128777 -16.150684   0.075855  -2.807189   0.021786   3.224225  -0.170762   6.845488   0.430048   0.898100  -0.916525   4.928071   0.007635   0.004234  -4.610082  -0.569048  -0.289114  -1.043341  -0.001848  -0.000566   1.641467  -0.729542   2.236653   5.297606  -0.008567  -0.001264  -5.242278   0.826430   0.239577   0.952978  -0.001489   0.000300
 -2.376825   0.929992   3.980827  -1.767071   0.228977  -0.810549   0.523204  -0.100492   0.378195   1.176750  -1.314169   0.838495  -0.889932   0.772045   1.037435   1.370732  -1.316348  14.952252   5.899842   3.137004  19.586992   0.104278   4.064478  -0.018492   3.557800  -0.635934  -6.143161   1.953043   0.341035 -15.436030   7.864169  -1.539917 -19.068942   0.080228  -3.258866   0.022572   3.663168  -0.414788   5.352265   0.001388   0.796160  -1.040893   6.143661   0.009710   0.000941  -5.059474  -0.622875  -0.051823  -1.039106  -0.001474  -0.000463   1.863272  -0.664075   2.803946   5.278873  -0.006796  -0.001018  -5.630487   1.013046   0.419403   1.087810  -0.001803   0.000451
 -2.376705   0.927069   3.980767  -1.774247   0.208322  -1.040181   0.551003  -0.133152   0.638922   1.267921  -1.463897   0.968184  -1.160163   0.776813   1.111216   1.536556  -1.169157  16.773205   6.590235   3.626634  21.906383   0.106524   4.657740  -0.019927   3.995080  -0.562864  -4.775856   2.143850   0.214993 -17.158323   8.563823  -1.992276 -21.632594   0.080275  -3.696107   0.023031   4.086546  -0.739895   4.006706  -0.430711   0.682408  -1.133528   7.323158   0.010967  -0.001281  -5.471059  -0.677124   0.169351  -1.001246  -0.001142  -0.000437   1.975251  -0.602935   3.334891   5.117846  -0.005016  -0.000909  -5.999256   1.187050   0.589398   1.213801  -0.001946   0.000599
 -2.376535   0.922991   3.980509  -1.775359   0.215829  -1.261890   0.619441  -0.162413   0.902523   1.371936  -1.602212   1.106748  -1.406606   0.780494   1.184002   1.662550  -0.989768  18.307696   7.206285   4.131701  23.947119   0.104559   5.222499  -0.020823   4.422036  -0.436738  -3.715715   2.294849   0.057634 -18.601344   9.190329  -2.459834 -23.900387   0.077485  -4.113335   0.022996   4.493178  -1.099995   2.956671  -0.821777   0.577140  -1.212725   8.428032   0.011527  -0.002613  -5.854316  -0.729100   0.375330  -0.961780  -0.000878  -0.000407   2.001753  -0.546563   3.814247   4.916393  -0.003568  -0.000879  -6.346226   1.348163   0.749101   1.326906  -0.001952   0.000709
 -2.376234   0.922012   3.980778  -1.895580   0.084683  -0.877558   0.713216  -0.127530   0.681653   1.521100  -1.686664   1.054353  -1.620986   0.785560   1.239123   1.762575  -0.791880  19.918890   7.754486   4.647096  25.883677   0.101354   5.752727  -0.020766   4.834936  -0.313158  -2.904423   2.433508  -0.084431 -20.005548   9.760266  -2.905296 -25.957333   0.073400  -4.491584   0.022250   4.876186  -1.375001   2.214665  -1.015124   0.505561  -1.820160   9.453892   0.010893  -0.004539  -6.201077  -0.781538   0.564276  -0.846128  -0.000663  -0.000613   1.931360  -0.390348   3.394872   5.282775  -0.002752  -0.000538  -6.010224   1.570014   0.727828   1.485815  -0.001501   0.000935
 -2.376334   0.921616   3.981271  -1.965790  -0.101253  -0.734771   0.755892  -0.076166   0.731397   1.634566  -1.741736   1.058638  -1.822439   0.790281   1.279837   1.848642  -0.603436  21.279192   8.250044   5.147243  27.639450   0.096322   6.254422  -0.020075   5.231419  -0.145734  -2.120395   2.571231  -0.200148 -21.252962  10.281664  -3.332601 -27.886239   0.068308  -4.847511   0.021139   5.239542  -1.661977   1.474306  -1.225840   0.429816  -2.046991  10.422844   0.008990  -0.006221  -6.527595  -0.830870   0.741087  -0.764453  -0.000597  -0.000729   1.944156  -0.292409   3.236668   5.506165  -0.002201  -0.000579  -6.033828   1.728510   0.807028   1.634479  -0.001291   0.000853
 -2.376708   0.921433   3.981832  -1.987058  -0.281138  -0.677186   0.778073  -0.030174   0.856097   1.718814  -1.788412   1.114184  -2.016867   0.793769   1.328455   1.920843  -0.424310  22.457128   8.698759   5.625385  29.219465   0.090014   6.724010  -0.019057   5.609658   0.029026  -1.447635   2.699586  -0.305166 -22.344116  10.758280  -3.739511 -29.644682   0.062523  -5.178772   0.019806   5.583798  -1.940574   0.811840  -1.445813   0.350015  -2.108478  11.329432   0.006773  -0.007218  -6.834506  -0.876241   0.907339  -0.706493  -0.000561  -0.000748   1.973134  -0.220503   3.182752   5.624947  -0.001783  -0.000568  -6.136272   1.865928   0.903520   1.747280  -0.001135   0.000718
 -2.377340   0.921249   3.982231  -1.919352  -0.377457  -0.602336   0.782232  -0.008214   0.884975   1.772234  -1.812784   1.256665  -2.219835   0.725465   1.368036   1.991889  -0.298394  23.217237   9.057404   6.025015  30.322003   0.082704   7.264221  -0.018336   5.922570   0.354850  -0.116638   2.823884  -0.401150 -22.972467  11.077627  -4.185419 -31.094340   0.056304  -5.545953   0.018467   5.879657  -2.277225  -0.348069  -1.637037   0.361932  -2.137403  11.868686   0.005076  -0.006208  -7.227356  -0.866778   0.986374  -0.457762  -0.000730  -0.000771   1.863352  -0.100094   3.140710   5.790206  -0.001475  -0.000402  -6.315523   1.973256   0.997246   1.773977  -0.000937   0.000608
